<svg width="24" height="24" viewBox="0 0 24 24" fill="none" xmlns="http://www.w3.org/2000/svg">
    <path fill-rule="evenodd" clip-rule="evenodd" d="M22 12C22 17.5228 17.5228 22 12 22C6.47715 22 2 17.5228 2 12C2 6.47715 6.47715 2 12 2C17.5228 2 22 6.47715 22 12ZM10.3333 7C10.3333 6.07953 11.0795 5.33333 12 5.33333C12.9205 5.33333 13.6667 6.07953 13.6667 7V12C13.6667 12.9205 12.9205 13.6667 12 13.6667C11.0795 13.6667 10.3333 12.9205 10.3333 12V7ZM12 18.6667C12.9205 18.6667 13.6667 17.9205 13.6667 17C13.6667 16.0795 12.9205 15.3333 12 15.3333C11.0795 15.3333 10.3333 16.0795 10.3333 17C10.3333 17.9205 11.0795 18.6667 12 18.6667Z" fill="#BE0F0F"/>
</svg>

