<?xml version="1.0" encoding="utf-8"?>
<!-- Generator: Adobe Illustrator 25.2.3, SVG Export Plug-In . SVG Version: 6.00 Build 0)  -->
<svg version="1.1" id="Layer_1" xmlns="http://www.w3.org/2000/svg" xmlns:xlink="http://www.w3.org/1999/xlink" x="0px" y="0px"
	 viewBox="0 0 667 209" style="enable-background:new 0 0 667 209;" xml:space="preserve">
<style type="text/css">
	.st0{fill:#E42313;}
</style>
<polygon class="st0" points="83.4,20.6 20.6,83.4 83.4,83.4 "/>
<g>
	<g>
		<path class="st0" d="M169.3,195.9c-22,0-40.7-5.6-56-16.9c-15.3-11.3-22.9-28-22.9-50.3c0-21.1,7.4-37.4,22-48.7
			c14.7-11.4,33.6-17,56.8-17c6.7,0,12.9,0.5,18.6,1.4c5.7,0.9,12.2,2.2,19.5,4l-1.3,30.9c-2.6-1.2-5-2.2-7.3-3
			c-2.3-0.8-5.4-1.7-9.5-2.6c-4.1-0.9-8.6-1.4-13.6-1.4c-12.1,0-21.9,3.4-29.3,10c-7.4,6.7-11.1,15.6-11.1,26.8
			c0,11.7,3.8,20.7,11.4,27.3c7.6,6.5,17.5,9.8,29.6,9.8c4.9,0,10-0.6,15.3-1.7c5.2-0.9,10.3-2.3,15.3-4.2l1,30.6
			c-2.7,0.6-5.5,1.3-8.4,1.9c-2.9,0.7-6.1,1.3-9.5,1.8c-3.4,0.5-6.7,0.9-9.9,1.1C176.9,195.8,173.3,195.9,169.3,195.9z"/>
	</g>
	<g>
		<path class="st0" d="M288.2,195.9c-22.9,0-40.5-5.8-52.8-17.4c-12.2-11.6-18.4-28-18.4-49.1c0-21.1,6.1-37.5,18.4-49.1
			C247.7,68.8,265.3,63,288.2,63c22.9,0,40.6,5.8,52.9,17.4c12.3,11.6,18.5,28,18.5,49.1c0,21.1-6.2,37.5-18.5,49.1
			C328.8,190.1,311.2,195.9,288.2,195.9z M288.2,91.1c-9.3,0-15.9,3.7-19.8,11.2c-3.9,7.5-5.9,16.5-5.9,27.1c0,10.6,2,19.6,5.9,27.1
			c3.9,7.5,10.5,11.2,19.8,11.2c9.7,0,16.3-3.8,20-11.2c3.7-7.5,5.5-16.5,5.5-27.1c0-10.4-1.9-19.4-5.6-27
			C304.4,94.9,297.8,91.1,288.2,91.1z"/>
	</g>
	<g>
		<path class="st0" d="M486.2,96.8H447v96.8h-43.9V96.8h-39.4V65.2h122.6V96.8z"/>
	</g>
	<g>
		<path class="st0" d="M631,193.7h-46.8l-9.5-27.6h-47l-9.5,27.6h-44.1l49.1-128.5h57.6L631,193.7z M567.4,138.5l-15.5-46.2
			l-16.4,46.2H567.4z"/>
	</g>
</g>
</svg>
